<?xml version="1.0" encoding="UTF-8"?>
<svg width="350px" height="350px" viewBox="0 0 350 350" version="1.1" xmlns="http://www.w3.org/2000/svg" xmlns:xlink="http://www.w3.org/1999/xlink">
    <!-- Generator: Sketch 49 (51002) - http://www.bohemiancoding.com/sketch -->
    <title>Artboard 2</title>
    <desc>Created with Sketch.</desc>
    <defs></defs>
    <g id="Artboard-2" stroke="none" stroke-width="1" fill="none" fill-rule="evenodd">
        <g id="logo_seo">
            <rect id="Rectangle-11" x="0" y="0" width="350" height="350"></rect>
            <g id="Group-10" transform="translate(6.000000, 11.000000)">
                <g id="Group-9" transform="translate(190.651578, 150.775934) rotate(-30.000000) translate(-190.651578, -150.775934) translate(89.151578, 35.275934)" fill="#7762DD">
                    <path d="M153.5,139.5 L153.5,159.5 L48.5,159.5 L48.5,139.5 L42.5,139.5 L42.5,107.5 L74.5,107.5 L74.5,127.5 L128.5,127.5 L128.5,74.5 L48.5,74.5 L48.5,54.5 L42.5,54.5 L42.5,-22.5 L48.5,-22.5 L48.5,-42.5 L153.5,-42.5 L153.5,-22.5 L159.5,-22.5 L159.5,9.5 L127.5,9.5 L127.5,-10.5 L74.5,-10.5 L74.5,42.5 L153.5,42.5 L153.5,62.5 L159.5,62.5 L159.5,139.5 L153.5,139.5 Z" id="Combined-Shape" transform="translate(101.000000, 58.500000) rotate(-270.000000) translate(-101.000000, -58.500000) "></path>
                    <path d="M146,174 L146,199 L171,199 L171,174 L146,174 Z M114,174 L89,174 L89,211 L83,211 L83,231 L0,231 L0,199 L57,199 L57,174 L0,174 L0,142 L203,142 L203,174 L203,211 L197,211 L197,231 L120,231 L120,211 L114,211 L114,174 Z" id="Combined-Shape"></path>
                </g>
                <path d="M-41.2436617,232.216574 L-41.2436617,231.544699 C-41.2436617,231.320739 -41.1561789,231.121278 -40.9812106,230.94631 C-40.8062422,230.771342 -40.6067813,230.683859 -40.3828219,230.683859 L-37.9682711,230.683859 C-37.7443116,230.683859 -37.5448508,230.767842 -37.3698824,230.935812 C-37.1949141,231.103782 -37.1074313,231.306742 -37.1074313,231.544699 L-37.1074313,232.216574 C-37.1074313,232.90245 -36.970958,233.549823 -36.6980074,234.158712 C-36.4250568,234.767602 -36.036633,235.285501 -35.5327242,235.712423 C-35.0288155,236.139346 -34.4409307,236.47528 -33.7690524,236.720236 C-33.097174,236.965192 -32.3623181,237.087668 -31.5644625,237.087668 C-30.766607,237.087668 -30.0282517,236.965192 -29.3493746,236.720236 C-28.6704975,236.47528 -28.0826128,236.132347 -27.5857027,235.691427 C-27.0887927,235.250507 -26.7038682,234.732609 -26.4309176,234.137716 C-26.157967,233.542824 -26.0214938,232.90245 -26.0214938,232.216574 C-26.0214938,231.208756 -26.1929601,230.407413 -26.5358981,229.812521 C-26.878836,229.217629 -27.3652406,228.724226 -27.9951266,228.332296 C-28.6250125,227.940367 -29.3843637,227.632428 -30.2732027,227.408468 C-31.1620418,227.184509 -32.1523477,226.939557 -33.24415,226.673605 C-34.2799625,226.449646 -35.2317759,226.113711 -36.0996188,225.665793 C-36.9674616,225.217874 -37.7233135,224.657983 -38.3671969,223.986105 C-39.0110803,223.314227 -39.5149815,222.519882 -39.8789156,221.603048 C-40.2428497,220.686214 -40.4248141,219.63992 -40.4248141,218.464132 C-40.4248141,217.176366 -40.1728635,216.03209 -39.6689547,215.031271 C-39.1650459,214.030452 -38.496677,213.183618 -37.6638277,212.490744 C-36.8309785,211.797869 -35.8861638,211.272972 -34.8293551,210.916037 C-33.7725464,210.559101 -32.6842598,210.380636 -31.5644625,210.380636 C-30.3046906,210.380636 -29.1359197,210.594094 -28.0581149,211.021017 C-26.98031,211.44794 -26.0459932,212.028826 -25.2551363,212.763693 C-24.4642795,213.49856 -23.8484003,214.352393 -23.4074801,215.325216 C-22.9665599,216.29804 -22.7461031,217.344335 -22.7461031,218.464132 L-22.7461031,219.031027 C-22.7461031,219.254986 -22.833586,219.454447 -23.0085543,219.629416 C-23.1835226,219.804384 -23.3829835,219.891867 -23.606943,219.891867 L-25.9795016,219.891867 C-26.203461,219.891867 -26.4029219,219.804384 -26.5778902,219.629416 C-26.7528586,219.454447 -26.8403414,219.254986 -26.8403414,219.031027 L-26.8403414,218.464132 C-26.8403414,217.750262 -26.980314,217.141381 -27.2602633,216.637472 C-27.5402126,216.133563 -27.9111399,215.717145 -28.3730563,215.388205 C-28.8349726,215.059264 -29.3458725,214.82481 -29.9057711,214.684836 C-30.4656697,214.544861 -31.0185613,214.474875 -31.5644625,214.474875 C-32.9642091,214.474875 -34.1014861,214.831805 -34.9763277,215.545675 C-35.8511694,216.259546 -36.2885836,217.232355 -36.2885836,218.464132 C-36.2885836,219.41596 -36.0821241,220.168313 -35.6691988,220.721212 C-35.2562736,221.274112 -34.7348758,221.718525 -34.1049899,222.054464 C-33.4751039,222.390404 -32.7787404,222.642354 -32.0158785,222.810324 C-31.2530166,222.978293 -30.5286586,223.14626 -29.8427828,223.31423 C-27.3792288,223.916121 -25.4371096,224.934421 -24.0163668,226.369162 C-22.595624,227.803902 -21.8852633,229.75302 -21.8852633,232.216574 C-21.8852633,233.588325 -22.1582098,234.827083 -22.7041109,235.932882 C-23.2500121,237.038682 -23.9673715,237.979998 -24.8562106,238.756857 C-25.7450496,239.533716 -26.7773473,240.1286 -27.9531344,240.541525 C-29.1289215,240.95445 -30.3326855,241.16091 -31.5644625,241.16091 C-32.9362142,241.16091 -34.2169631,240.926456 -35.4067477,240.457541 C-36.5965323,239.988625 -37.6218313,239.344752 -38.4826754,238.5259 C-39.3435195,237.707048 -40.0188871,236.758734 -40.5087984,235.680929 C-40.9987098,234.603124 -41.2436617,233.448351 -41.2436617,232.216574 Z M-5.37279018,239.964132 L-5.37279018,211.577414 C-5.37279018,211.353454 -5.28530733,211.153993 -5.11033901,210.979025 C-4.93537069,210.804057 -4.73590979,210.716574 -4.51195034,210.716574 L9.8073856,210.716574 C10.0313451,210.716574 10.2308059,210.804057 10.4057743,210.979025 C10.5807426,211.153993 10.6682254,211.353454 10.6682254,211.577414 L10.6682254,213.949972 C10.6682254,214.173932 10.5807426,214.373393 10.4057743,214.548361 C10.2308059,214.723329 10.0313451,214.810812 9.8073856,214.810812 L-0.858630028,214.810812 C-1.13857934,214.810812 -1.2785519,214.950785 -1.2785519,215.230734 L-1.2785519,222.978293 C-1.2785519,223.258242 -1.13857934,223.405213 -0.858630028,223.419211 L9.34547153,223.419211 C9.56943099,223.419211 9.76889188,223.503194 9.94386021,223.671164 C10.1188285,223.839133 10.2063114,224.042093 10.2063114,224.28005 L10.2063114,226.631613 C10.2063114,226.855572 10.1188285,227.055033 9.94386021,227.230002 C9.76889188,227.40497 9.56943099,227.492453 9.34547153,227.492453 L-0.858630028,227.492453 C-1.13857934,227.492453 -1.2785519,227.639424 -1.2785519,227.933371 L-1.2785519,236.310812 C-1.2785519,236.590761 -1.13857934,236.730734 -0.858630028,236.730734 L9.89136997,236.730734 C10.1153294,236.730734 10.3147903,236.818217 10.4897586,236.993185 C10.664727,237.168153 10.7522098,237.367614 10.7522098,237.591574 L10.7522098,239.964132 C10.7522098,240.188092 10.6682263,240.387553 10.5002567,240.562521 C10.3322871,240.737489 10.1293269,240.824972 9.89136997,240.824972 L-4.51195034,240.824972 C-4.73590979,240.824972 -4.93537069,240.737489 -5.11033901,240.562521 C-5.28530733,240.387553 -5.37279018,240.188092 -5.37279018,239.964132 Z M25.3330423,229.235128 C25.2770524,228.101334 25.2490579,226.939562 25.2490579,225.749777 C25.2490579,224.559992 25.2770524,223.405219 25.3330423,222.285421 C25.3890322,221.165624 25.4730157,220.178818 25.5849954,219.324972 C25.7249701,218.149185 26.0399083,217.022406 26.5298196,215.944601 C27.0197309,214.866796 27.6741027,213.914983 28.4929544,213.089132 C29.3118062,212.263282 30.2881148,211.605411 31.4219095,211.1155 C32.5557042,210.625588 33.8364531,210.380636 35.2641946,210.380636 C36.5519615,210.380636 37.7487269,210.587096 38.8545267,211.000021 C39.9603265,211.412946 40.9366351,212.00783 41.7834818,212.784689 C42.6303284,213.561548 43.3266919,214.502864 43.8725931,215.608664 C44.4184942,216.714463 44.7754243,217.953221 44.9433939,219.324972 C45.0553736,220.178818 45.1323585,221.172623 45.1743509,222.306418 C45.2163433,223.440212 45.2373392,224.594986 45.2373392,225.770773 C45.2373392,226.94656 45.2093447,228.101334 45.1533548,229.235128 C45.0973649,230.368923 45.0273787,231.362728 44.9433939,232.216574 C44.8034192,233.392361 44.4884809,234.526139 43.9985696,235.617941 C43.5086583,236.709743 42.8542866,237.665056 42.0354349,238.483908 C41.2165831,239.30276 40.2367752,239.953632 39.0959818,240.436545 C37.9551883,240.919457 36.6779387,241.16091 35.2641946,241.16091 C33.9764278,241.16091 32.7796624,240.95445 31.6738626,240.541525 C30.5680628,240.1286 29.5952535,239.533716 28.7554056,238.756857 C27.9155576,237.979998 27.2226935,237.042182 26.6767923,235.94338 C26.1308911,234.844579 25.7669625,233.602323 25.5849954,232.216574 C25.4730157,231.362728 25.3890322,230.368923 25.3330423,229.235128 Z M29.4272806,222.327414 C29.3712907,223.447211 29.3432962,224.594986 29.3432962,225.770773 C29.3432962,226.94656 29.3712907,228.094335 29.4272806,229.214132 C29.4832704,230.33393 29.567254,231.334733 29.6792337,232.216574 C29.7632185,232.84646 29.9416835,233.45534 30.2146341,234.043234 C30.4875847,234.631128 30.8620113,235.149026 31.3379251,235.596945 C31.8138389,236.044864 32.3807278,236.405293 33.0386087,236.678244 C33.6964896,236.951194 34.4383442,237.087668 35.2641946,237.087668 C36.7199311,237.087668 37.9586882,236.664251 38.9805032,235.817404 C40.0023182,234.970557 40.6251961,233.770293 40.8491556,232.216574 C40.9611353,231.334733 41.0556168,230.33393 41.1326028,229.214132 C41.2095889,228.094335 41.2480814,226.94656 41.2480814,225.770773 C41.2480814,224.594986 41.2130882,223.447211 41.1431009,222.327414 C41.0731136,221.207616 40.9751328,220.206813 40.8491556,219.324972 C40.7651708,218.695086 40.5867058,218.086206 40.3137552,217.498312 C40.0408046,216.910419 39.6698773,216.39252 39.2009622,215.944601 C38.7320471,215.496682 38.1721569,215.139752 37.5212747,214.8738 C36.8703926,214.607849 36.1180401,214.474875 35.2641946,214.474875 C33.8644481,214.474875 32.6326895,214.887794 31.5688821,215.713644 C30.5050747,216.539495 29.8751982,217.743259 29.6792337,219.324972 C29.567254,220.206813 29.4832704,221.207616 29.4272806,222.327414 Z M60.7210037,239.964132 L60.7210037,211.577414 C60.7210037,211.353454 60.8084865,211.153993 60.9834549,210.979025 C61.1584232,210.804057 61.3578841,210.716574 61.5818435,210.716574 L69.3294021,210.716574 C70.5611791,210.716574 71.72995,210.954527 72.8357498,211.430441 C73.9415496,211.906355 74.9003616,212.553728 75.7122146,213.37258 C76.5240676,214.191431 77.1679414,215.150243 77.6438552,216.249045 C78.1197691,217.347846 78.3577224,218.513117 78.3577224,219.744894 C78.3577224,221.382598 77.9413041,222.883803 77.1084549,224.248556 C76.2756056,225.613309 75.2013163,226.6806 73.8855545,227.450461 C73.479628,227.67442 73.2066815,227.901875 73.0667068,228.132834 C72.9267322,228.363792 72.9547267,228.682229 73.1506912,229.088156 L78.2317459,239.544211 C78.3717205,239.866152 78.3787192,240.160095 78.252742,240.426046 C78.1267648,240.691998 77.8468197,240.824972 77.4128982,240.824972 L74.9983474,240.824972 C74.6484108,240.824972 74.3894616,240.744488 74.221492,240.583517 C74.0535224,240.422546 73.8995526,240.216087 73.7595779,239.964132 L68.6785232,229.298117 C68.6225334,229.158142 68.5315512,229.039165 68.405574,228.941183 C68.2795968,228.843201 68.0976325,228.794211 67.8596756,228.794211 L65.2351638,228.794211 C64.9552145,228.794211 64.815242,228.934183 64.815242,229.214132 L64.815242,239.964132 C64.815242,240.188092 64.7277591,240.387553 64.5527908,240.562521 C64.3778225,240.737489 64.1783616,240.824972 63.9544021,240.824972 L61.5818435,240.824972 C61.3578841,240.824972 61.1584232,240.737489 60.9834549,240.562521 C60.8084865,240.387553 60.7210037,240.188092 60.7210037,239.964132 Z M64.815242,224.28005 C64.815242,224.56 64.9552145,224.699972 65.2351638,224.699972 L69.3294021,224.699972 C69.987283,224.699972 70.6171595,224.570498 71.2190506,224.311545 C71.8209416,224.052591 72.3458387,223.70266 72.7937576,223.26174 C73.2416765,222.82082 73.5986065,222.299422 73.8645584,221.697531 C74.1305102,221.09564 74.2634842,220.444767 74.2634842,219.744894 C74.2634842,219.059018 74.1375089,218.422143 73.8855545,217.83425 C73.6336001,217.246356 73.2766701,216.724958 72.8147537,216.270041 C72.3528373,215.815123 71.8279402,215.458193 71.2400467,215.19924 C70.6521531,214.940287 70.0152779,214.810812 69.3294021,214.810812 L65.2351638,214.810812 C64.9552145,214.810812 64.815242,214.950785 64.815242,215.230734 L64.815242,224.28005 Z M91.7837698,239.964132 L99.7832815,211.367453 C99.8672663,210.933531 100.140213,210.716574 100.602129,210.716574 L103.604571,210.716574 C104.066487,210.716574 104.339433,210.933531 104.423418,211.367453 L112.42293,239.964132 C112.436927,240.020122 112.443926,240.076111 112.443926,240.132101 C112.443926,240.258078 112.387937,240.391052 112.275957,240.531027 C112.135983,240.726991 111.898029,240.824972 111.56209,240.824972 L109.189531,240.824972 C108.783605,240.824972 108.510658,240.608015 108.370684,240.174093 L106.481035,233.602316 C106.397051,233.196389 106.124104,232.993429 105.662188,232.993429 L98.5235159,232.993429 C98.1175893,232.993429 97.8446429,233.196389 97.7046682,233.602316 L95.8150198,240.174093 C95.6750451,240.608015 95.4020986,240.824972 94.9961721,240.824972 L92.6446096,240.824972 C92.294673,240.824972 92.049721,240.726991 91.9097463,240.531027 C91.8117641,240.391052 91.7627737,240.258078 91.7627737,240.132101 C91.7627737,240.076111 91.7697723,240.020122 91.7837698,239.964132 Z M99.0904104,228.521261 C99.0764129,228.591249 99.0694143,228.654236 99.0694143,228.710226 C99.0694143,228.906191 99.188391,229.004171 99.4263479,229.004171 L104.759356,229.004171 C105.01131,229.004171 105.137285,228.906191 105.137285,228.710226 C105.137285,228.654236 105.130287,228.591249 105.116289,228.521261 L102.302813,216.532492 C102.246823,216.364522 102.190834,216.280539 102.134844,216.280539 L102.05086,216.280539 C101.966875,216.280539 101.910886,216.364522 101.882891,216.532492 L99.0904104,228.521261 Z M124.967141,211.766378 C124.953144,211.696391 124.946145,211.626405 124.946145,211.556418 C124.946145,211.402445 124.988137,211.241477 125.072122,211.073507 C125.212096,210.83555 125.45005,210.716574 125.785989,210.716574 L128.368508,210.716574 C128.80243,210.716574 129.075376,210.933531 129.187356,211.367453 L135.171243,234.295187 C135.199238,234.463157 135.283221,234.54714 135.423196,234.54714 L135.50718,234.54714 C135.61916,234.54714 135.703144,234.463157 135.759133,234.295187 L141.74302,211.367453 C141.855,210.933531 142.127946,210.716574 142.561868,210.716574 L145.18638,210.716574 C145.536316,210.716574 145.77427,210.828552 145.900247,211.052511 C145.984232,211.206483 146.026223,211.360453 146.026223,211.514425 C146.026223,211.584413 146.019225,211.654399 146.005227,211.724386 L137.963723,240.174093 C137.823749,240.608015 137.550802,240.824972 137.144876,240.824972 L133.785501,240.824972 C133.351579,240.824972 133.078633,240.608015 132.966653,240.174093 L124.967141,211.766378 Z M161.698853,239.964132 L161.698853,211.577414 C161.698853,211.353454 161.786336,211.153993 161.961304,210.979025 C162.136272,210.804057 162.335733,210.716574 162.559693,210.716574 L176.879028,210.716574 C177.102988,210.716574 177.302449,210.804057 177.477417,210.979025 C177.652385,211.153993 177.739868,211.353454 177.739868,211.577414 L177.739868,213.949972 C177.739868,214.173932 177.652385,214.373393 177.477417,214.548361 C177.302449,214.723329 177.102988,214.810812 176.879028,214.810812 L166.213013,214.810812 C165.933064,214.810812 165.793091,214.950785 165.793091,215.230734 L165.793091,222.978293 C165.793091,223.258242 165.933064,223.405213 166.213013,223.419211 L176.417114,223.419211 C176.641074,223.419211 176.840535,223.503194 177.015503,223.671164 C177.190471,223.839133 177.277954,224.042093 177.277954,224.28005 L177.277954,226.631613 C177.277954,226.855572 177.190471,227.055033 177.015503,227.230002 C176.840535,227.40497 176.641074,227.492453 176.417114,227.492453 L166.213013,227.492453 C165.933064,227.492453 165.793091,227.639424 165.793091,227.933371 L165.793091,236.310812 C165.793091,236.590761 165.933064,236.730734 166.213013,236.730734 L176.963013,236.730734 C177.186972,236.730734 177.386433,236.818217 177.561402,236.993185 C177.73637,237.168153 177.823853,237.367614 177.823853,237.591574 L177.823853,239.964132 C177.823853,240.188092 177.739869,240.387553 177.5719,240.562521 C177.40393,240.737489 177.20097,240.824972 176.963013,240.824972 L162.559693,240.824972 C162.335733,240.824972 162.136272,240.737489 161.961304,240.562521 C161.786336,240.387553 161.698853,240.188092 161.698853,239.964132 Z" id="seorave" fill="#000000" transform="translate(68.290095, 225.770773) rotate(-300.000000) translate(-68.290095, -225.770773) "></path>
            </g>
        </g>
    </g>
</svg>